<svg width="1569" height="1318" viewBox="0 0 1569 1318" fill="none" xmlns="http://www.w3.org/2000/svg">
<rect x="238" y="283.389" width="1064" height="792" rx="56" fill="#FFF7ED" stroke="#57534E" stroke-width="10"/>
<rect x="730" y="424.389" width="522" height="604" rx="28" fill="#FDE68A" fill-opacity="0.75" stroke="#57534E" stroke-width="10"/>
<path opacity="0.75" d="M809 458.389H1173C1197.85 458.389 1218 478.536 1218 503.389V556.389H809C784.147 556.389 764 536.242 764 511.389V503.389C764 478.536 784.147 458.389 809 458.389Z" fill="white" stroke="#1E1E1E" stroke-width="10"/>
<path opacity="0.75" d="M809 589.889H1173C1197.85 589.889 1218 610.036 1218 634.889V844.889C1218 869.742 1197.85 889.889 1173 889.889H764V634.889C764 610.036 784.147 589.889 809 589.889Z" fill="white" stroke="#1E1E1E" stroke-width="10"/>
<rect opacity="0.75" x="791" y="616.389" width="400" height="248" rx="33" fill="#22C55E"/>
<path d="M1028.27 734.92L962.806 696.45C961.703 695.801 960.438 695.446 959.145 695.423C957.851 695.4 956.574 695.709 955.446 696.319C954.329 696.919 953.398 697.794 952.75 698.854C952.101 699.914 951.758 701.121 951.757 702.351V779.283C951.765 781.128 952.535 782.893 953.899 784.192C955.262 785.491 957.106 786.217 959.026 786.21C960.366 786.209 961.68 785.854 962.824 785.184L1028.27 746.714C1029.32 746.098 1030.19 745.232 1030.79 744.2C1031.4 743.168 1031.71 742.005 1031.71 740.821C1031.71 739.638 1031.4 738.474 1030.79 737.442C1030.19 736.411 1029.32 735.545 1028.27 734.929V734.92ZM959.026 779.2V702.408L1024.37 740.817L959.026 779.2Z" fill="white" fill-opacity="0.75"/>
<path d="M959.026 779.2V702.408L1024.37 740.817L959.026 779.2Z" fill="white" fill-opacity="0.75"/>
<rect opacity="0.75" x="764" y="923.389" width="454" height="71" rx="35.5" fill="white" stroke="#1E1E1E" stroke-width="10"/>
<path d="M809.229 972.389L806.854 965.649H797.574L795.2 972.389H791L800.031 948.018H804.447L813.462 972.389H809.229ZM805.825 962.229L803.518 955.588C803.429 955.301 803.302 954.897 803.136 954.376C802.97 953.845 802.804 953.308 802.638 952.766C802.472 952.213 802.333 951.748 802.223 951.372C802.112 951.825 801.974 952.334 801.808 952.899C801.653 953.452 801.498 953.972 801.343 954.459C801.199 954.946 801.088 955.323 801.011 955.588L798.687 962.229H805.825ZM828.619 967.143C828.619 968.349 828.326 969.368 827.739 970.198C827.153 971.028 826.295 971.659 825.166 972.09C824.048 972.511 822.676 972.721 821.049 972.721C819.765 972.721 818.658 972.627 817.729 972.439C816.81 972.262 815.941 971.985 815.122 971.609V968.239C815.996 968.648 816.976 969.002 818.061 969.301C819.156 969.6 820.191 969.75 821.165 969.75C822.449 969.75 823.373 969.55 823.938 969.152C824.502 968.742 824.784 968.2 824.784 967.525C824.784 967.126 824.668 966.772 824.436 966.462C824.214 966.141 823.794 965.815 823.174 965.483C822.565 965.14 821.669 964.73 820.484 964.254C819.322 963.79 818.343 963.325 817.546 962.86C816.749 962.395 816.146 961.836 815.736 961.183C815.327 960.519 815.122 959.672 815.122 958.643C815.122 957.016 815.764 955.782 817.048 954.941C818.343 954.089 820.053 953.663 822.178 953.663C823.307 953.663 824.369 953.779 825.365 954.011C826.372 954.233 827.357 954.559 828.32 954.991L827.092 957.929C826.262 957.564 825.426 957.265 824.585 957.033C823.755 956.789 822.908 956.667 822.045 956.667C821.038 956.667 820.269 956.822 819.737 957.132C819.217 957.442 818.957 957.885 818.957 958.46C818.957 958.892 819.084 959.257 819.339 959.556C819.593 959.855 820.031 960.154 820.65 960.453C821.281 960.751 822.156 961.122 823.273 961.565C824.369 961.986 825.315 962.428 826.112 962.893C826.92 963.347 827.54 963.906 827.972 964.57C828.403 965.234 828.619 966.092 828.619 967.143ZM836.737 946.557V959.042C836.737 959.606 836.715 960.226 836.671 960.901C836.627 961.565 836.582 962.19 836.538 962.777H836.621C836.909 962.389 837.252 961.936 837.65 961.416C838.06 960.895 838.447 960.442 838.812 960.054L844.424 954.011H848.906L841.552 961.914L849.388 972.389H844.806L838.929 964.321L836.737 966.197V972.389H832.836V946.557H836.737ZM868.363 953.663C870.688 953.663 872.442 954.177 873.626 955.207C874.821 956.236 875.419 957.841 875.419 960.021V972.389H872.646L871.899 969.783H871.767C871.246 970.447 870.71 970.995 870.156 971.426C869.603 971.858 868.961 972.179 868.23 972.389C867.511 972.611 866.631 972.721 865.591 972.721C864.495 972.721 863.516 972.522 862.652 972.124C861.789 971.714 861.108 971.094 860.61 970.264C860.112 969.434 859.863 968.383 859.863 967.11C859.863 965.217 860.566 963.795 861.972 962.843C863.388 961.891 865.524 961.366 868.38 961.266L871.567 961.15V960.187C871.567 958.914 871.269 958.007 870.671 957.464C870.084 956.922 869.254 956.651 868.181 956.651C867.262 956.651 866.371 956.784 865.508 957.049C864.645 957.315 863.803 957.641 862.984 958.029L861.723 955.273C862.619 954.797 863.637 954.41 864.777 954.111C865.928 953.812 867.124 953.663 868.363 953.663ZM871.551 963.607L869.177 963.69C867.229 963.756 865.862 964.088 865.076 964.686C864.29 965.284 863.897 966.103 863.897 967.143C863.897 968.051 864.169 968.715 864.711 969.135C865.253 969.545 865.967 969.75 866.853 969.75C868.203 969.75 869.321 969.368 870.206 968.604C871.103 967.829 871.551 966.695 871.551 965.201V963.607ZM901.384 980.541V972.738C901.384 972.295 901.395 971.814 901.417 971.293C901.45 970.773 901.5 970.297 901.566 969.866H901.367C900.869 970.674 900.177 971.354 899.292 971.908C898.407 972.45 897.25 972.721 895.822 972.721C893.664 972.721 891.926 971.924 890.609 970.331C889.292 968.726 888.634 966.357 888.634 963.225C888.634 961.144 888.938 959.396 889.547 957.979C890.156 956.562 891.008 955.489 892.104 954.758C893.21 954.028 894.494 953.663 895.955 953.663C897.361 953.663 898.501 953.939 899.375 954.493C900.26 955.035 900.969 955.705 901.5 956.501H901.633L902.064 954.011H905.302V980.541H901.384ZM896.984 969.583C898.091 969.583 898.977 969.373 899.641 968.953C900.305 968.532 900.786 967.896 901.085 967.043C901.384 966.18 901.544 965.112 901.566 963.839V963.242C901.566 961.161 901.229 959.578 900.554 958.494C899.879 957.409 898.678 956.867 896.951 956.867C895.49 956.867 894.406 957.437 893.697 958.577C892.989 959.706 892.635 961.277 892.635 963.292C892.635 965.328 892.989 966.889 893.697 967.973C894.417 969.047 895.512 969.583 896.984 969.583ZM926.917 954.011V972.389H923.846L923.314 969.916H923.099C922.711 970.546 922.219 971.072 921.621 971.493C921.023 971.902 920.359 972.207 919.629 972.406C918.898 972.616 918.129 972.721 917.321 972.721C915.938 972.721 914.754 972.489 913.769 972.024C912.795 971.548 912.048 970.818 911.527 969.833C911.007 968.847 910.747 967.575 910.747 966.014V954.011H914.665V965.284C914.665 966.711 914.953 967.779 915.528 968.488C916.115 969.196 917.022 969.55 918.251 969.55C919.435 969.55 920.376 969.307 921.073 968.82C921.771 968.333 922.263 967.613 922.551 966.662C922.85 965.71 922.999 964.542 922.999 963.159V954.011H926.917ZM939.833 953.663C941.471 953.663 942.877 954 944.05 954.675C945.223 955.35 946.125 956.308 946.756 957.547C947.387 958.787 947.702 960.27 947.702 961.997V964.088H935.434C935.478 965.87 935.954 967.243 936.861 968.206C937.78 969.168 939.064 969.65 940.713 969.65C941.886 969.65 942.938 969.539 943.867 969.318C944.808 969.085 945.776 968.748 946.772 968.305V971.476C945.854 971.908 944.919 972.223 943.967 972.422C943.015 972.622 941.875 972.721 940.547 972.721C938.743 972.721 937.155 972.373 935.782 971.675C934.421 970.967 933.353 969.916 932.578 968.521C931.814 967.126 931.433 965.394 931.433 963.325C931.433 961.266 931.781 959.517 932.479 958.079C933.176 956.64 934.155 955.544 935.417 954.792C936.679 954.039 938.151 953.663 939.833 953.663ZM939.833 956.601C938.604 956.601 937.608 957 936.845 957.796C936.092 958.593 935.649 959.761 935.517 961.299H943.884C943.873 960.381 943.718 959.567 943.419 958.859C943.131 958.151 942.688 957.597 942.091 957.199C941.504 956.8 940.752 956.601 939.833 956.601ZM964.453 967.143C964.453 968.349 964.16 969.368 963.573 970.198C962.987 971.028 962.129 971.659 961 972.09C959.882 972.511 958.51 972.721 956.883 972.721C955.599 972.721 954.492 972.627 953.562 972.439C952.644 972.262 951.775 971.985 950.956 971.609V968.239C951.83 968.648 952.81 969.002 953.895 969.301C954.99 969.6 956.025 969.75 956.999 969.75C958.283 969.75 959.207 969.55 959.771 969.152C960.336 968.742 960.618 968.2 960.618 967.525C960.618 967.126 960.502 966.772 960.27 966.462C960.048 966.141 959.628 965.815 959.008 965.483C958.399 965.14 957.503 964.73 956.318 964.254C955.156 963.79 954.177 963.325 953.38 962.86C952.583 962.395 951.98 961.836 951.57 961.183C951.161 960.519 950.956 959.672 950.956 958.643C950.956 957.016 951.598 955.782 952.882 954.941C954.177 954.089 955.887 953.663 958.012 953.663C959.141 953.663 960.203 953.779 961.199 954.011C962.206 954.233 963.191 954.559 964.154 954.991L962.926 957.929C962.096 957.564 961.26 957.265 960.419 957.033C959.589 956.789 958.742 956.667 957.879 956.667C956.872 956.667 956.103 956.822 955.571 957.132C955.051 957.442 954.791 957.885 954.791 958.46C954.791 958.892 954.918 959.257 955.173 959.556C955.427 959.855 955.865 960.154 956.484 960.453C957.115 960.751 957.99 961.122 959.107 961.565C960.203 961.986 961.149 962.428 961.946 962.893C962.754 963.347 963.374 963.906 963.806 964.57C964.237 965.234 964.453 966.092 964.453 967.143ZM975.51 969.567C976.019 969.567 976.522 969.523 977.021 969.434C977.519 969.334 977.972 969.218 978.382 969.085V972.041C977.95 972.229 977.391 972.389 976.705 972.522C976.019 972.655 975.305 972.721 974.563 972.721C973.523 972.721 972.588 972.55 971.758 972.207C970.928 971.852 970.269 971.249 969.782 970.397C969.295 969.545 969.052 968.366 969.052 966.861V956.983H966.545V955.24L969.234 953.862L970.513 949.927H972.97V954.011H978.232V956.983H972.97V966.811C972.97 967.741 973.202 968.432 973.667 968.886C974.132 969.34 974.746 969.567 975.51 969.567ZM986.019 954.011V972.389H982.117V954.011H986.019ZM984.093 946.972C984.69 946.972 985.205 947.133 985.637 947.454C986.079 947.775 986.301 948.328 986.301 949.114C986.301 949.889 986.079 950.442 985.637 950.774C985.205 951.095 984.69 951.255 984.093 951.255C983.473 951.255 982.947 951.095 982.516 950.774C982.095 950.442 981.885 949.889 981.885 949.114C981.885 948.328 982.095 947.775 982.516 947.454C982.947 947.133 983.473 946.972 984.093 946.972ZM1007.88 963.159C1007.88 964.686 1007.68 966.042 1007.29 967.226C1006.89 968.41 1006.31 969.412 1005.54 970.231C1004.78 971.039 1003.86 971.659 1002.79 972.09C1001.71 972.511 1000.5 972.721 999.15 972.721C997.889 972.721 996.732 972.511 995.681 972.09C994.629 971.659 993.716 971.039 992.941 970.231C992.178 969.412 991.586 968.41 991.165 967.226C990.744 966.042 990.534 964.686 990.534 963.159C990.534 961.133 990.883 959.418 991.58 958.012C992.288 956.596 993.296 955.516 994.602 954.775C995.908 954.033 997.463 953.663 999.267 953.663C1000.96 953.663 1002.45 954.033 1003.75 954.775C1005.04 955.516 1006.06 956.596 1006.79 958.012C1007.52 959.429 1007.88 961.144 1007.88 963.159ZM994.552 963.159C994.552 964.498 994.712 965.643 995.033 966.595C995.365 967.547 995.874 968.278 996.561 968.787C997.247 969.285 998.132 969.534 999.217 969.534C1000.3 969.534 1001.19 969.285 1001.87 968.787C1002.56 968.278 1003.06 967.547 1003.38 966.595C1003.7 965.643 1003.87 964.498 1003.87 963.159C1003.87 961.819 1003.7 960.685 1003.38 959.755C1003.06 958.815 1002.56 958.101 1001.87 957.614C1001.19 957.116 1000.3 956.867 999.2 956.867C997.584 956.867 996.406 957.409 995.664 958.494C994.923 959.578 994.552 961.133 994.552 963.159ZM1021.94 953.663C1024.01 953.663 1025.62 954.199 1026.78 955.273C1027.94 956.335 1028.52 958.045 1028.52 960.403V972.389H1024.62V961.133C1024.62 959.706 1024.32 958.638 1023.74 957.929C1023.15 957.21 1022.24 956.85 1021.01 956.85C1019.23 956.85 1017.99 957.398 1017.3 958.494C1016.61 959.589 1016.27 961.178 1016.27 963.258V972.389H1012.37V954.011H1015.4L1015.95 956.501H1016.17C1016.57 955.86 1017.06 955.334 1017.64 954.924C1018.24 954.504 1018.91 954.188 1019.64 953.978C1020.38 953.768 1021.15 953.663 1021.94 953.663ZM1033.42 970.331C1033.42 969.423 1033.65 968.787 1034.11 968.421C1034.59 968.045 1035.16 967.857 1035.84 967.857C1036.51 967.857 1037.09 968.045 1037.57 968.421C1038.05 968.787 1038.3 969.423 1038.3 970.331C1038.3 971.216 1038.05 971.858 1037.57 972.256C1037.09 972.644 1036.51 972.837 1035.84 972.837C1035.16 972.837 1034.59 972.644 1034.11 972.256C1033.65 971.858 1033.42 971.216 1033.42 970.331ZM1042.75 970.331C1042.75 969.423 1042.98 968.787 1043.44 968.421C1043.92 968.045 1044.49 967.857 1045.17 967.857C1045.85 967.857 1046.42 968.045 1046.9 968.421C1047.38 968.787 1047.63 969.423 1047.63 970.331C1047.63 971.216 1047.38 971.858 1046.9 972.256C1046.42 972.644 1045.85 972.837 1045.17 972.837C1044.49 972.837 1043.92 972.644 1043.44 972.256C1042.98 971.858 1042.75 971.216 1042.75 970.331ZM1052.08 970.331C1052.08 969.423 1052.31 968.787 1052.77 968.421C1053.25 968.045 1053.82 967.857 1054.5 967.857C1055.18 967.857 1055.75 968.045 1056.23 968.421C1056.71 968.787 1056.96 969.423 1056.96 970.331C1056.96 971.216 1056.71 971.858 1056.23 972.256C1055.75 972.644 1055.18 972.837 1054.5 972.837C1053.82 972.837 1053.25 972.644 1052.77 972.256C1052.31 971.858 1052.08 971.216 1052.08 970.331Z" fill="#57534E"/>
<rect x="290" y="722.389" width="318" height="30" rx="15" fill="#57534E" fill-opacity="0.5"/>
<rect x="290" y="767.389" width="230" height="30" rx="15" fill="#57534E" fill-opacity="0.5"/>
<rect x="290" y="812.389" width="290" height="30" rx="15" fill="#57534E" fill-opacity="0.5"/>
<rect x="290" y="857.389" width="258" height="30" rx="15" fill="#57534E" fill-opacity="0.5"/>
<rect x="290" y="902.389" width="290" height="30" rx="15" fill="#57534E" fill-opacity="0.5"/>
<rect x="290" y="453.389" width="304" height="30" rx="15" fill="#57534E" fill-opacity="0.5"/>
<rect x="290" y="498.389" width="215" height="30" rx="15" fill="#57534E" fill-opacity="0.5"/>
<rect x="290" y="543.389" width="318" height="30" rx="15" fill="#57534E" fill-opacity="0.5"/>
<rect x="290" y="588.389" width="215" height="30" rx="15" fill="#57534E" fill-opacity="0.5"/>
<rect x="290" y="633.389" width="258" height="30" rx="15" fill="#57534E" fill-opacity="0.5"/>
<path d="M1246 283.389C1276.93 283.389 1302 308.461 1302 339.389V395.389H238V339.389C238 308.461 263.072 283.389 294 283.389H1246Z" fill="#FDE68A" fill-opacity="0.75" stroke="#57534E" stroke-width="10"/>
<circle cx="290.5" cy="340.889" r="17.5" fill="#EF4444"/>
<circle cx="340.5" cy="340.889" r="17.5" fill="#F59E0B"/>
<circle cx="392.5" cy="340.889" r="17.5" fill="#22C55E"/>
<path d="M240.039 708.106C244.152 708.597 247.885 705.661 248.376 701.548C248.866 697.435 245.93 693.703 241.817 693.212L240.039 708.106ZM146.992 898.759C150.787 900.421 155.209 898.691 156.871 894.897L183.939 833.062C185.6 829.267 183.87 824.845 180.076 823.183C176.281 821.522 171.859 823.252 170.198 827.046L146.137 882.011L91.1727 857.95C87.3782 856.289 82.9556 858.019 81.2945 861.813C79.6335 865.608 81.363 870.03 85.1575 871.691L146.992 898.759ZM224.159 691.875C220.019 691.756 216.566 695.016 216.447 699.156C216.328 703.296 219.588 706.749 223.729 706.868L224.159 691.875ZM192.163 709.798C196.187 708.816 198.653 704.758 197.671 700.733C196.689 696.709 192.631 694.243 188.607 695.225L192.163 709.798ZM155.321 711.026C152.075 713.599 151.529 718.316 154.102 721.562C156.675 724.808 161.393 725.353 164.639 722.78L155.321 711.026ZM146.201 746.593C147.949 742.837 146.322 738.376 142.567 736.628C138.812 734.88 134.35 736.507 132.602 740.263L146.201 746.593ZM123.147 775.098C122.656 779.211 125.592 782.943 129.705 783.434C133.818 783.925 137.55 780.988 138.041 776.876L123.147 775.098ZM137.623 809.236C137.3 805.107 133.69 802.021 129.56 802.345C125.431 802.668 122.345 806.278 122.669 810.407L137.623 809.236ZM127.866 844.908C128.747 848.955 132.742 851.522 136.789 850.641C140.837 849.76 143.403 845.765 142.523 841.718L127.866 844.908ZM151.34 873.586C150.026 869.658 145.777 867.538 141.849 868.852C137.92 870.165 135.8 874.414 137.114 878.343L151.34 873.586ZM240.928 700.659L241.817 693.212C235.672 692.478 229.789 692.036 224.159 691.875L223.944 699.371L223.729 706.868C228.875 707.016 234.308 707.422 240.039 708.106L240.928 700.659ZM190.385 702.511L188.607 695.225C175.497 698.424 164.437 703.798 155.321 711.026L159.98 716.903L164.639 722.78C171.914 717.013 180.965 712.53 192.163 709.798L190.385 702.511ZM139.402 743.428L132.602 740.263C127.649 750.904 124.627 762.699 123.147 775.098L130.594 775.987L138.041 776.876C139.373 765.721 142.046 755.52 146.201 746.593L139.402 743.428ZM130.146 809.822L122.669 810.407C123.558 821.764 125.352 833.358 127.866 844.908L135.194 843.313L142.523 841.718C140.135 830.747 138.453 819.831 137.623 809.236L130.146 809.822ZM144.227 875.965L137.114 878.343C138.953 883.844 140.927 889.28 143.015 894.62L150 891.889L156.985 889.157C154.987 884.047 153.099 878.846 151.34 873.586L144.227 875.965Z" fill="#93C5FD"/>
<rect x="43" y="930.738" width="229.231" height="198.876" rx="33" transform="rotate(-12 43 930.738)" fill="#3B82F6"/>
<path d="M215.459 926.659L108.678 949.356C105.846 949.958 103.368 951.656 101.79 954.077C100.212 956.499 99.6621 959.445 100.262 962.267L108.179 999.515C115.633 1034.58 137.182 1052.21 153.947 1060.83C172.003 1070.1 188.218 1071.1 188.924 1071.14C189.894 1071.2 190.862 1070.99 191.727 1070.55C192.356 1070.22 206.741 1062.72 219.484 1046.9C231.256 1032.22 243.77 1007.34 236.317 972.279L228.399 935.031C227.799 932.209 226.099 929.741 223.672 928.171C221.246 926.6 218.291 926.057 215.459 926.659ZM225.639 974.548C230.879 999.205 226.017 1021.16 211.185 1039.78C204.724 1047.87 196.885 1054.76 188.029 1060.14C177.888 1058.86 168.053 1055.82 158.971 1051.15C137.625 1040.19 124.131 1022.06 118.857 997.246L110.94 959.998L217.721 937.301L225.639 974.548ZM145.969 1012.1C144.755 1011.32 143.904 1010.08 143.604 1008.67C143.304 1007.26 143.579 1005.78 144.368 1004.57C145.158 1003.36 146.397 1002.51 147.814 1002.21C149.231 1001.91 150.709 1002.18 151.923 1002.97L166.757 1012.57L193.235 971.94C193.626 971.34 194.131 970.823 194.722 970.417C195.314 970.012 195.979 969.727 196.681 969.578C197.382 969.428 198.106 969.419 198.811 969.548C199.516 969.678 200.188 969.945 200.789 970.334C201.391 970.723 201.909 971.226 202.315 971.815C202.72 972.404 203.006 973.067 203.154 973.766C203.303 974.465 203.312 975.187 203.181 975.89C203.05 976.593 202.781 977.264 202.39 977.863L172.934 1023.06C172.543 1023.66 172.038 1024.17 171.446 1024.58C170.855 1024.98 170.19 1025.27 169.488 1025.42C168.786 1025.57 168.062 1025.58 167.357 1025.45C166.652 1025.32 165.98 1025.05 165.379 1024.66L145.969 1012.1Z" fill="white" fill-opacity="0.75"/>
<rect x="1287" y="1082.39" width="229.231" height="198.876" rx="33" transform="rotate(-3 1287 1082.39)" fill="#F87171"/>
<path d="M1453.55 1201.36C1459.87 1195.45 1464.79 1188.18 1467.94 1180.11C1471.09 1172.03 1472.4 1163.35 1471.76 1154.71C1469.53 1124.78 1444.3 1101.34 1414.37 1101.33C1406.65 1101.31 1399 1102.85 1391.89 1105.85C1384.77 1108.86 1378.33 1113.26 1372.95 1118.81C1367.56 1124.35 1363.35 1130.93 1360.55 1138.14C1357.75 1145.35 1356.42 1153.05 1356.65 1160.78L1343.45 1189.85C1343.4 1189.97 1343.35 1190.1 1343.3 1190.22C1342.38 1192.73 1342.45 1195.5 1343.5 1197.97C1344.55 1200.43 1346.5 1202.4 1348.95 1203.47L1349.12 1203.54L1364.46 1209.62L1365.53 1229.98C1365.67 1232.76 1366.92 1235.37 1368.98 1237.24C1371.05 1239.1 1373.77 1240.06 1376.54 1239.92L1407.93 1238.27C1409.32 1238.2 1410.62 1237.58 1411.55 1236.54C1412.48 1235.51 1412.96 1234.15 1412.89 1232.76C1412.82 1231.37 1412.2 1230.06 1411.16 1229.13C1410.13 1228.2 1408.77 1227.71 1407.38 1227.79L1375.99 1229.43L1374.75 1205.71C1374.7 1204.71 1374.36 1203.74 1373.77 1202.92C1373.19 1202.11 1372.38 1201.47 1371.44 1201.1L1353.14 1193.83L1366.7 1163.98C1367.06 1163.22 1367.22 1162.38 1367.19 1161.55C1366.63 1150.85 1369.7 1140.29 1375.92 1131.58C1382.14 1122.87 1391.12 1116.54 1401.4 1113.61L1401.94 1123.83C1398.51 1125.25 1395.7 1127.84 1393.99 1131.14C1392.28 1134.44 1391.8 1138.23 1392.61 1141.86C1393.43 1145.48 1395.5 1148.7 1398.46 1150.94C1401.41 1153.19 1405.07 1154.31 1408.77 1154.12C1412.47 1153.92 1415.99 1152.42 1418.69 1149.88C1421.4 1147.34 1423.12 1143.93 1423.56 1140.24C1423.99 1136.55 1423.11 1132.82 1421.07 1129.72C1419.03 1126.62 1415.96 1124.34 1412.4 1123.28L1411.8 1111.89C1412.65 1111.85 1413.5 1111.8 1414.36 1111.82C1423.66 1111.87 1432.75 1114.67 1440.48 1119.86C1448.21 1125.05 1454.24 1132.42 1457.82 1141.03L1444.84 1141.71C1444.08 1141.75 1443.33 1141.95 1442.65 1142.32C1441.97 1142.68 1441.38 1143.19 1440.92 1143.8L1425.29 1164.75C1421.74 1163.63 1417.91 1163.8 1414.48 1165.24C1411.05 1166.68 1408.24 1169.29 1406.55 1172.6C1404.85 1175.92 1404.38 1179.73 1405.22 1183.36C1406.05 1186.99 1408.14 1190.21 1411.12 1192.44C1414.1 1194.68 1417.76 1195.79 1421.48 1195.57C1425.19 1195.36 1428.71 1193.84 1431.41 1191.28C1434.1 1188.71 1435.81 1185.28 1436.23 1181.57C1436.64 1177.87 1435.74 1174.14 1433.67 1171.04L1447.85 1152.06L1460.79 1151.38C1461.02 1152.74 1461.19 1154.11 1461.29 1155.5C1461.85 1163 1460.62 1170.53 1457.7 1177.45C1454.78 1184.38 1450.26 1190.52 1444.51 1195.35C1443.8 1195.94 1443.26 1196.71 1442.94 1197.58C1442.63 1198.45 1442.55 1199.39 1442.71 1200.3L1450.14 1241.97C1450.36 1243.23 1451.04 1244.36 1452.04 1245.15C1453.04 1245.95 1454.29 1246.35 1455.57 1246.29C1455.78 1246.27 1456 1246.25 1456.22 1246.21C1456.89 1246.09 1457.54 1245.84 1458.12 1245.47C1458.7 1245.09 1459.2 1244.61 1459.6 1244.05C1459.99 1243.48 1460.27 1242.84 1460.42 1242.17C1460.56 1241.5 1460.58 1240.8 1460.46 1240.12L1453.55 1201.36ZM1408.22 1143.62C1407.19 1143.68 1406.16 1143.42 1405.27 1142.89C1404.38 1142.36 1403.66 1141.58 1403.22 1140.64C1402.77 1139.7 1402.61 1138.66 1402.76 1137.63C1402.91 1136.6 1403.36 1135.64 1404.05 1134.87C1404.74 1134.1 1405.65 1133.55 1406.65 1133.29C1407.66 1133.04 1408.72 1133.09 1409.69 1133.43C1410.67 1133.78 1411.52 1134.41 1412.14 1135.24C1412.76 1136.07 1413.12 1137.07 1413.18 1138.11C1413.25 1139.5 1412.77 1140.86 1411.84 1141.9C1410.91 1142.93 1409.61 1143.55 1408.22 1143.62ZM1420.88 1185.02C1419.85 1185.07 1418.82 1184.82 1417.93 1184.29C1417.04 1183.76 1416.33 1182.97 1415.88 1182.04C1415.43 1181.1 1415.27 1180.05 1415.42 1179.02C1415.57 1178 1416.02 1177.04 1416.71 1176.26C1417.41 1175.49 1418.31 1174.94 1419.32 1174.69C1420.32 1174.43 1421.38 1174.48 1422.36 1174.83C1423.33 1175.18 1424.19 1175.8 1424.81 1176.64C1425.43 1177.47 1425.79 1178.47 1425.84 1179.5C1425.91 1180.89 1425.43 1182.26 1424.5 1183.29C1423.57 1184.33 1422.27 1184.95 1420.88 1185.02Z" fill="white" fill-opacity="0.75"/>
<path d="M1002.68 1062.01C1001.78 1057.97 1004.33 1053.96 1008.38 1053.07C1012.42 1052.17 1016.43 1054.72 1017.32 1058.77L1002.68 1062.01ZM1271.3 1175.59C1274.23 1178.51 1274.23 1183.26 1271.3 1186.19L1223.57 1233.92C1220.64 1236.85 1215.9 1236.85 1212.97 1233.92C1210.04 1230.99 1210.04 1226.24 1212.97 1223.32L1255.39 1180.89L1212.97 1138.46C1210.04 1135.53 1210.04 1130.79 1212.97 1127.86C1215.9 1124.93 1220.64 1124.93 1223.57 1127.86L1271.3 1175.59ZM1246.55 1188.32C1242.41 1188.28 1239.08 1184.89 1239.12 1180.75C1239.15 1176.61 1242.54 1173.28 1246.68 1173.32L1246.55 1188.32ZM1208.19 1172.37C1212.33 1172.56 1215.54 1176.06 1215.35 1180.2C1215.17 1184.34 1211.66 1187.54 1207.52 1187.36L1208.19 1172.37ZM1168.38 1184.43C1164.26 1183.97 1161.3 1180.26 1161.75 1176.15C1162.21 1172.03 1165.92 1169.06 1170.03 1169.52L1168.38 1184.43ZM1132.57 1163.48C1136.62 1164.38 1139.17 1168.38 1138.28 1172.42C1137.38 1176.47 1133.38 1179.02 1129.33 1178.13L1132.57 1163.48ZM1091.09 1166.46C1087.25 1164.9 1085.4 1160.53 1086.96 1156.69C1088.52 1152.85 1092.9 1151.01 1096.74 1152.57L1091.09 1166.46ZM1064.52 1134.81C1067.85 1137.27 1068.56 1141.97 1066.1 1145.3C1063.64 1148.63 1058.94 1149.33 1055.61 1146.87L1064.52 1134.81ZM1026.8 1117.81C1024.38 1114.45 1025.14 1109.76 1028.5 1107.34C1031.87 1104.92 1036.55 1105.69 1038.97 1109.05L1026.8 1117.81ZM1022.35 1076.6C1023.71 1080.51 1021.64 1084.79 1017.73 1086.15C1013.82 1087.51 1009.54 1085.44 1008.18 1081.53L1022.35 1076.6ZM1266 1180.89L1266 1188.39C1259.54 1188.39 1253.05 1188.37 1246.55 1188.32L1246.62 1180.82L1246.68 1173.32C1253.12 1173.37 1259.56 1173.39 1266 1173.39L1266 1180.89ZM1207.86 1179.87L1207.52 1187.36C1194.31 1186.77 1181.2 1185.85 1168.38 1184.43L1169.21 1176.97L1170.03 1169.52C1182.45 1170.9 1195.22 1171.8 1208.19 1172.37L1207.86 1179.87ZM1130.95 1170.8L1129.33 1178.13C1116 1175.18 1103.17 1171.38 1091.09 1166.46L1093.91 1159.52L1096.74 1152.57C1107.9 1157.11 1119.9 1160.68 1132.57 1163.48L1130.95 1170.8ZM1060.06 1140.84L1055.61 1146.87C1044.72 1138.83 1035.01 1129.23 1026.8 1117.81L1032.88 1113.43L1038.97 1109.05C1046.23 1119.14 1054.81 1127.64 1064.52 1134.81L1060.06 1140.84ZM1015.26 1079.07L1008.18 1081.53C1006.04 1075.36 1004.2 1068.86 1002.68 1062.01L1010 1060.39L1017.32 1058.77C1018.72 1065.07 1020.4 1071.01 1022.35 1076.6L1015.26 1079.07Z" fill="#FCA5A5"/>
<path d="M333.024 125.111C329.036 126.229 324.896 123.902 323.778 119.914C322.66 115.925 324.987 111.786 328.975 110.667L333.024 125.111ZM515.803 299.692C512.874 302.621 508.126 302.621 505.197 299.692L457.467 251.963C454.538 249.034 454.538 244.285 457.467 241.356C460.396 238.427 465.145 238.427 468.074 241.356L510.5 283.782L552.927 241.356C555.855 238.427 560.604 238.427 563.533 241.356C566.462 244.285 566.462 249.034 563.533 251.963L515.803 299.692ZM354.373 105.382C358.479 104.837 362.25 107.724 362.794 111.831C363.339 115.937 360.452 119.707 356.346 120.252L354.373 105.382ZM402.866 122.454C398.851 121.436 396.421 117.356 397.439 113.34C398.457 109.325 402.537 106.896 406.552 107.914L402.866 122.454ZM453.439 131.632C456.649 134.249 457.131 138.974 454.514 142.184C451.897 145.395 447.173 145.877 443.962 143.26L453.439 131.632ZM474.215 179.046C472.095 175.487 473.262 170.884 476.821 168.765C480.379 166.645 484.983 167.812 487.102 171.371L474.215 179.046ZM507.413 218.647C508.585 222.62 506.314 226.791 502.341 227.962C498.368 229.134 494.197 226.863 493.026 222.89L507.413 218.647ZM501.915 270.234C501.542 266.109 504.584 262.462 508.71 262.09C512.835 261.717 516.482 264.759 516.854 268.884L501.915 270.234ZM331 117.889L328.975 110.667C337.71 108.219 346.176 106.47 354.373 105.382L355.36 112.817L356.346 120.252C348.893 121.241 341.12 122.841 333.024 125.111L331 117.889ZM404.709 115.184L406.552 107.914C424.29 112.411 439.932 120.624 453.439 131.632L448.7 137.446L443.962 143.26C432.052 133.553 418.365 126.383 402.866 122.454L404.709 115.184ZM480.658 175.208L487.102 171.371C495.677 185.768 502.434 201.762 507.413 218.647L500.22 220.769L493.026 222.89C488.356 207.054 482.071 192.238 474.215 179.046L480.658 175.208ZM509.385 269.559L516.854 268.884C517.618 277.337 518 285.861 518 294.389L510.5 294.389L503 294.389C503 286.307 502.638 278.234 501.915 270.234L509.385 269.559Z" fill="#FDBA74"/>
<rect x="82.2303" y="37" width="229.231" height="198.876" rx="33" fill="#F59E0B"/>
<path d="M261.258 102.144L219.576 60.144C219.023 59.587 218.366 59.1454 217.643 58.8442C216.92 58.5431 216.146 58.3884 215.364 58.389H143.909C140.751 58.389 137.721 59.6533 135.488 61.9038C133.255 64.1542 132 67.2064 132 70.389V202.389C132 205.572 133.255 208.624 135.488 210.874C137.721 213.125 140.751 214.389 143.909 214.389H251.091C254.249 214.389 257.279 213.125 259.512 210.874C261.745 208.624 263 205.572 263 202.389V106.389C263.001 105.601 262.847 104.82 262.548 104.092C262.249 103.364 261.811 102.702 261.258 102.144ZM221.318 78.8715L242.673 100.389H221.318V78.8715ZM251.091 202.389H143.909V70.389H209.409V106.389C209.409 107.98 210.036 109.506 211.153 110.632C212.27 111.757 213.784 112.389 215.364 112.389H251.091V202.389ZM227.273 142.389C227.273 143.98 226.645 145.506 225.529 146.632C224.412 147.757 222.897 148.389 221.318 148.389H173.682C172.103 148.389 170.588 147.757 169.471 146.632C168.355 145.506 167.727 143.98 167.727 142.389C167.727 140.798 168.355 139.272 169.471 138.146C170.588 137.021 172.103 136.389 173.682 136.389H221.318C222.897 136.389 224.412 137.021 225.529 138.146C226.645 139.272 227.273 140.798 227.273 142.389ZM227.273 166.389C227.273 167.98 226.645 169.506 225.529 170.632C224.412 171.757 222.897 172.389 221.318 172.389H173.682C172.103 172.389 170.588 171.757 169.471 170.632C168.355 169.506 167.727 167.98 167.727 166.389C167.727 164.798 168.355 163.272 169.471 162.146C170.588 161.021 172.103 160.389 173.682 160.389H221.318C222.897 160.389 224.412 161.021 225.529 162.146C226.645 163.272 227.273 164.798 227.273 166.389Z" fill="white" fill-opacity="0.75"/>
</svg>
