<svg width="944" height="666" viewBox="0 0 944 666" fill="none" xmlns="http://www.w3.org/2000/svg">
<path d="M759.5 116.207C820.5 98.7069 947.742 147.207 943.5 199.707C939.258 252.207 835.5 286.707 799.5 291.207L759.5 116.207Z" fill="#FACC15"/>
<path d="M785 393.707C839.5 182.707 745.5 85.7068 686.5 37.7068C627.5 -10.2931 550 1.20679 550 1.20679C416 1.20679 300.5 225.707 300.5 225.707C154.5 502.707 22.5 541.707 22.5 541.707C22.5 541.707 0.499941 546.207 0.500031 560.207C0.50012 574.207 12.6949 576.54 22.5 580.707C82.5 606.207 171.5 593.207 197.5 582.207C197.5 582.207 256.5 566.707 329.5 487.207C351.583 463.158 406 382.207 408 326.707C410.5 311.707 421.794 308.118 429.5 309.207C475.5 315.707 391 464.207 391 464.207C391 464.207 347 539.207 250.5 595.707C250.5 595.707 238.5 600.207 238.5 613.707C238.5 623.207 284.541 657.101 385 664.207C438.5 664.207 474 677.208 603.5 613.707C733 550.207 785 393.707 785 393.707Z" fill="black"/>
<path d="M672 184.707C672 233.584 632.601 273.207 584 273.207C535.399 273.207 496 233.584 496 184.707C496 135.83 535.399 96.2069 584 96.2069C632.601 96.2069 672 135.83 672 184.707Z" fill="white"/>
<path d="M391 464.207C391.424 464.456 391.431 464.46 391.431 464.461C391.43 464.462 391.429 464.463 391.429 464.464C391.427 464.466 391.426 464.47 391.423 464.475C391.417 464.484 391.408 464.498 391.397 464.517C391.376 464.554 391.343 464.608 391.3 464.681C391.213 464.826 391.082 465.041 390.908 465.324C390.561 465.89 390.039 466.727 389.341 467.811C387.945 469.978 385.845 473.135 383.024 477.099C377.382 485.026 368.855 496.181 357.311 509.103C334.221 534.945 299.057 567.857 250.753 596.139L250.716 596.16L250.676 596.175H250.675C250.674 596.175 250.673 596.176 250.671 596.177C250.666 596.179 250.659 596.182 250.648 596.186C250.628 596.193 250.597 596.206 250.556 596.223C250.473 596.257 250.35 596.31 250.191 596.382C249.875 596.526 249.419 596.748 248.87 597.057C247.772 597.675 246.306 598.636 244.842 600.009C241.919 602.749 239 607.125 239 613.707C239 614.72 239.629 616.175 241.067 618.004C242.49 619.813 244.649 621.916 247.572 624.213C253.417 628.805 262.273 634.134 274.278 639.396C298.282 649.918 334.842 660.155 385.009 663.707C411.829 663.708 433.977 666.955 465.677 662.275C497.357 657.598 538.556 644.996 603.28 613.259C667.912 581.566 713.225 526.653 742.388 479.631C756.967 456.123 767.503 434.598 774.395 418.95C777.84 411.127 780.374 404.774 782.046 400.378C782.882 398.18 783.502 396.471 783.913 395.312C784.119 394.733 784.272 394.292 784.374 393.995C784.425 393.847 784.463 393.735 784.488 393.66C784.501 393.623 784.51 393.595 784.517 393.576C784.517 393.574 784.518 393.571 784.519 393.569C811.741 288.167 801.865 211.285 777.853 154.777C753.836 98.2603 715.657 62.0721 686.185 38.0947C656.783 14.1749 622.76 5.07152 596.067 1.95312C582.723 0.394231 571.219 0.331906 563.052 0.65918C558.969 0.822802 555.721 1.08389 553.495 1.30371C552.382 1.41363 551.524 1.51393 550.946 1.58594C550.658 1.62191 550.438 1.65088 550.292 1.6709C550.219 1.68091 550.164 1.68815 550.127 1.69336C550.109 1.69595 550.095 1.69792 550.086 1.69922C550.082 1.69984 550.078 1.70087 550.076 1.70117H550.074H550.073L550.037 1.70703H550C516.641 1.70708 484.397 15.6798 454.773 36.6924C425.152 57.7036 398.184 85.7297 375.388 113.772C352.593 141.813 333.981 169.856 321.066 190.891C314.61 201.407 309.578 210.17 306.161 216.304C304.453 219.37 303.148 221.779 302.271 223.421C301.832 224.242 301.5 224.871 301.278 225.295C301.167 225.507 301.084 225.667 301.028 225.774C301 225.828 300.979 225.869 300.965 225.896C300.958 225.909 300.953 225.919 300.949 225.926C300.948 225.929 300.947 225.932 300.946 225.934C300.945 225.935 300.936 225.931 300.5 225.707L300.944 225.936L300.942 225.939C227.918 364.486 158.381 443.538 107.077 487.96C81.4255 510.171 60.3337 523.723 45.6455 531.725C38.3016 535.725 32.5584 538.339 28.6475 539.953C26.6925 540.76 25.1952 541.317 24.1846 541.673C23.6794 541.851 23.2954 541.979 23.0371 542.062C22.9081 542.104 22.8102 542.135 22.7442 542.155C22.7112 542.165 22.686 542.174 22.669 542.179C22.6605 542.181 22.654 542.183 22.6494 542.185C22.6472 542.185 22.6447 542.186 22.6436 542.187C22.642 542.186 22.6346 542.162 22.5 541.707L22.6416 542.187L22.6211 542.193L22.6006 542.197H22.5996L22.5977 542.198C22.5955 542.199 22.5917 542.199 22.5869 542.2C22.5772 542.202 22.562 542.206 22.542 542.21C22.5021 542.219 22.442 542.231 22.3633 542.249C22.2057 542.285 21.9727 542.339 21.6758 542.413C21.0821 542.562 20.2319 542.789 19.211 543.106C17.167 543.741 14.4467 544.731 11.7315 546.15C6.26562 549.008 1.00015 553.505 1.00003 560.207C1.00005 563.631 1.74487 566.314 2.99222 568.481C4.2408 570.651 6.00977 572.332 8.10062 573.729C10.1952 575.127 12.6019 576.232 15.1143 577.252C17.5973 578.26 20.2511 579.208 22.6953 580.247C52.5977 592.956 89.7633 596.081 122.729 594.646C155.7 593.209 184.383 587.214 197.306 581.747L197.338 581.732L197.373 581.724H197.375C197.377 581.723 197.379 581.723 197.382 581.722C197.388 581.72 197.399 581.717 197.412 581.713C197.44 581.705 197.481 581.694 197.537 581.679C197.649 581.648 197.817 581.6 198.039 581.534C198.484 581.403 199.149 581.199 200.022 580.911C201.767 580.335 204.347 579.423 207.672 578.08C214.323 575.393 223.959 570.981 235.875 564.087C259.707 550.299 292.667 526.58 329.132 486.868C340.14 474.88 359.242 448.665 375.843 418.51C392.45 388.342 406.504 354.315 407.5 326.688L407.501 326.656L407.507 326.625C408.778 319 412.298 314.223 416.527 311.503C420.743 308.792 425.618 308.153 429.57 308.712C435.492 309.549 439.348 312.692 441.509 317.529C443.653 322.329 444.119 328.765 443.389 336.217C441.928 351.128 435.654 370.356 427.963 389.332C420.268 408.32 411.135 427.1 403.929 441.131C400.325 448.147 397.203 453.977 394.98 458.053C393.869 460.091 392.982 461.691 392.374 462.781C392.07 463.326 391.836 463.745 391.677 464.026C391.597 464.167 391.537 464.274 391.496 464.346C391.476 464.381 391.461 464.409 391.45 464.427C391.445 464.436 391.441 464.443 391.439 464.447C391.437 464.449 391.436 464.451 391.436 464.452C391.435 464.453 391.434 464.454 391 464.207ZM391 464.207L391.435 464.454L391.432 464.46L391 464.207ZM671.5 184.707C671.5 233.311 632.322 272.707 584 272.707C535.678 272.707 496.5 233.311 496.5 184.707C496.5 136.103 535.678 96.707 584 96.707C632.322 96.707 671.5 136.103 671.5 184.707ZM672.5 184.707C672.5 135.556 632.88 95.707 584 95.707C535.12 95.707 495.5 135.556 495.5 184.707C495.5 233.858 535.12 273.707 584 273.707C632.88 273.707 672.5 233.858 672.5 184.707Z" stroke="black"/>
<path d="M584 143.707C605.234 143.707 622.5 162.034 622.5 184.707C622.5 207.38 605.234 225.707 584 225.707C562.766 225.707 545.5 207.38 545.5 184.707C545.5 162.034 562.766 143.707 584 143.707Z" fill="black" stroke="black"/>
</svg>
