<svg width="3102" height="666" viewBox="0 0 3102 666" fill="none" xmlns="http://www.w3.org/2000/svg">
<path d="M759 116.207C820 98.707 947.242 147.207 943 199.707C938.758 252.207 835 286.707 799 291.207L759 116.207Z" fill="#FACC15"/>
<path d="M784.5 393.707C839 182.707 745 85.7068 686 37.7068C627 -10.2931 549.5 1.20679 549.5 1.20679C415.5 1.20679 300 225.707 300 225.707C154 502.707 22 541.707 22 541.707C22 541.707 -8.9962e-05 546.207 2.75903e-10 560.207C8.99631e-05 574.207 12.1949 576.54 22 580.707C82 606.207 171 593.207 197 582.207C197 582.207 256 566.707 329 487.207C351.083 463.158 405.5 382.207 407.5 326.707C410 311.707 421.294 308.118 429 309.207C475 315.707 390.5 464.207 390.5 464.207C390.5 464.207 346.5 539.207 250 595.707C250 595.707 238 600.207 238 613.707C238 623.207 284.041 657.101 384.5 664.207C438 664.207 473.5 677.208 603 613.707C732.5 550.207 784.5 393.707 784.5 393.707Z" fill="black"/>
<path d="M671.5 184.707C671.5 233.584 632.101 273.207 583.5 273.207C534.899 273.207 495.5 233.584 495.5 184.707C495.5 135.83 534.899 96.2069 583.5 96.2069C632.101 96.2069 671.5 135.83 671.5 184.707Z" fill="white"/>
<path d="M390.5 464.207C390.924 464.456 390.931 464.46 390.931 464.461C390.93 464.462 390.929 464.463 390.929 464.464C390.927 464.466 390.926 464.47 390.923 464.475C390.917 464.484 390.908 464.498 390.897 464.517C390.876 464.554 390.843 464.608 390.8 464.681C390.713 464.826 390.582 465.041 390.408 465.324C390.061 465.89 389.539 466.727 388.841 467.811C387.445 469.978 385.345 473.135 382.524 477.099C376.882 485.026 368.355 496.181 356.811 509.103C333.721 534.945 298.557 567.857 250.253 596.139L250.216 596.16L250.176 596.175H250.175C250.174 596.175 250.173 596.176 250.171 596.177C250.166 596.179 250.159 596.182 250.148 596.186C250.128 596.193 250.097 596.206 250.056 596.223C249.973 596.257 249.85 596.31 249.691 596.382C249.375 596.526 248.919 596.748 248.37 597.057C247.272 597.675 245.806 598.636 244.342 600.009C241.419 602.749 238.5 607.125 238.5 613.707C238.5 614.72 239.129 616.175 240.567 618.004C241.99 619.813 244.149 621.916 247.072 624.213C252.917 628.805 261.773 634.134 273.778 639.396C297.782 649.918 334.342 660.155 384.509 663.707C411.329 663.708 433.477 666.955 465.177 662.275C496.857 657.598 538.056 644.996 602.78 613.259C667.412 581.566 712.725 526.653 741.888 479.631C756.467 456.123 767.003 434.598 773.895 418.95C777.34 411.127 779.874 404.774 781.546 400.378C782.382 398.18 783.002 396.471 783.413 395.312C783.619 394.733 783.772 394.292 783.874 393.995C783.925 393.847 783.963 393.735 783.988 393.66C784.001 393.623 784.01 393.595 784.017 393.576C784.017 393.574 784.018 393.571 784.019 393.569C811.241 288.167 801.365 211.285 777.353 154.777C753.336 98.2603 715.157 62.0721 685.685 38.0947C656.283 14.1749 622.26 5.07152 595.567 1.95312C582.223 0.394231 570.719 0.331906 562.552 0.65918C558.469 0.822802 555.221 1.08389 552.995 1.30371C551.882 1.41363 551.024 1.51393 550.446 1.58594C550.158 1.62191 549.938 1.65088 549.792 1.6709C549.719 1.68091 549.663 1.68815 549.627 1.69336C549.609 1.69595 549.595 1.69792 549.586 1.69922C549.582 1.69984 549.578 1.70087 549.576 1.70117H549.574H549.573L549.537 1.70703H549.5C516.141 1.70708 483.897 15.6798 454.273 36.6924C424.652 57.7036 397.684 85.7297 374.888 113.772C352.093 141.813 333.481 169.856 320.566 190.891C314.11 201.407 309.078 210.17 305.661 216.304C303.953 219.37 302.648 221.779 301.771 223.421C301.332 224.242 301 224.871 300.778 225.295C300.667 225.507 300.584 225.667 300.528 225.774C300.5 225.828 300.479 225.869 300.465 225.896C300.458 225.909 300.453 225.919 300.449 225.926C300.448 225.929 300.447 225.932 300.446 225.934C300.445 225.935 300.436 225.931 300 225.707L300.444 225.936L300.442 225.939C227.418 364.486 157.881 443.538 106.577 487.96C80.9255 510.171 59.8337 523.723 45.1455 531.725C37.8015 535.725 32.0584 538.339 28.1475 539.953C26.1925 540.76 24.6951 541.317 23.6846 541.673C23.1793 541.851 22.7954 541.979 22.5371 542.062C22.4081 542.104 22.3102 542.135 22.2441 542.155C22.2112 542.165 22.186 542.174 22.1689 542.179C22.1605 542.181 22.1539 542.183 22.1494 542.185C22.1471 542.185 22.1447 542.186 22.1436 542.187C22.1419 542.186 22.1345 542.162 22 541.707L22.1416 542.187L22.1211 542.193L22.1006 542.197H22.0996L22.0977 542.198C22.0954 542.199 22.0917 542.199 22.0869 542.2C22.0771 542.202 22.062 542.206 22.042 542.21C22.0021 542.219 21.942 542.231 21.8633 542.249C21.7056 542.285 21.4726 542.339 21.1758 542.413C20.582 542.562 19.7319 542.789 18.7109 543.106C16.6669 543.741 13.9467 544.731 11.2314 546.15C5.76559 549.008 0.500115 553.505 0.5 560.207C0.500022 563.631 1.24484 566.314 2.49219 568.481C3.74077 570.651 5.50974 572.332 7.60059 573.729C9.69513 575.127 12.1018 576.232 14.6143 577.252C17.0972 578.26 19.751 579.208 22.1953 580.247C52.0977 592.956 89.2633 596.081 122.229 594.646C155.2 593.209 183.883 587.214 196.806 581.747L196.838 581.732L196.873 581.724H196.875C196.876 581.723 196.879 581.723 196.882 581.722C196.888 581.72 196.898 581.717 196.912 581.713C196.94 581.705 196.981 581.694 197.037 581.679C197.149 581.648 197.317 581.6 197.539 581.534C197.984 581.403 198.649 581.199 199.521 580.911C201.267 580.335 203.847 579.423 207.172 578.08C213.823 575.393 223.459 570.981 235.375 564.087C259.207 550.299 292.167 526.58 328.632 486.868C339.64 474.88 358.742 448.665 375.343 418.51C391.95 388.342 406.004 354.315 407 326.688L407.001 326.656L407.007 326.625C408.278 319 411.798 314.223 416.027 311.503C420.243 308.792 425.118 308.153 429.07 308.712C434.992 309.549 438.848 312.692 441.009 317.529C443.153 322.329 443.619 328.765 442.889 336.217C441.428 351.128 435.154 370.356 427.463 389.332C419.768 408.32 410.635 427.1 403.429 441.131C399.825 448.147 396.703 453.977 394.48 458.053C393.369 460.091 392.482 461.691 391.874 462.781C391.57 463.326 391.336 463.745 391.177 464.026C391.097 464.167 391.037 464.274 390.996 464.346C390.976 464.381 390.96 464.409 390.95 464.427C390.945 464.436 390.941 464.443 390.938 464.447C390.937 464.449 390.936 464.451 390.936 464.452C390.935 464.453 390.934 464.454 390.5 464.207ZM390.5 464.207L390.935 464.454L390.932 464.46L390.5 464.207ZM671 184.707C671 233.311 631.822 272.707 583.5 272.707C535.178 272.707 496 233.311 496 184.707C496 136.103 535.178 96.707 583.5 96.707C631.822 96.707 671 136.103 671 184.707ZM672 184.707C672 135.556 632.38 95.707 583.5 95.707C534.62 95.707 495 135.556 495 184.707C495 233.858 534.62 273.707 583.5 273.707C632.38 273.707 672 233.858 672 184.707Z" stroke="black"/>
<path d="M583.5 143.707C604.734 143.707 622 162.034 622 184.707C622 207.38 604.734 225.707 583.5 225.707C562.266 225.707 545 207.38 545 184.707C545 162.034 562.266 143.707 583.5 143.707Z" fill="black" stroke="black"/>
<path d="M1389.47 253.38C1388.01 238.713 1381.77 227.319 1370.74 219.198C1359.71 211.077 1344.74 207.016 1325.83 207.016C1312.98 207.016 1302.13 208.834 1293.28 212.471C1284.44 215.986 1277.65 220.895 1272.92 227.198C1268.32 233.501 1266.01 240.652 1266.01 248.652C1265.77 255.319 1267.16 261.137 1270.19 266.107C1273.35 271.077 1277.65 275.38 1283.1 279.016C1288.56 282.531 1294.86 285.622 1302.01 288.289C1309.16 290.834 1316.8 293.016 1324.92 294.834L1358.38 302.834C1374.62 306.471 1389.53 311.319 1403.1 317.38C1416.68 323.44 1428.44 330.895 1438.38 339.743C1448.32 348.592 1456.01 359.016 1461.47 371.016C1467.04 383.016 1469.89 396.774 1470.01 412.289C1469.89 435.077 1464.07 454.834 1452.56 471.561C1441.16 488.167 1424.68 501.077 1403.1 510.289C1381.65 519.38 1355.77 523.925 1325.47 523.925C1295.41 523.925 1269.22 519.319 1246.92 510.107C1224.74 500.895 1207.41 487.258 1194.92 469.198C1182.56 451.016 1176.07 428.531 1175.47 401.743H1251.65C1252.5 414.228 1256.07 424.652 1262.38 433.016C1268.8 441.258 1277.35 447.501 1288.01 451.743C1298.8 455.864 1310.98 457.925 1324.56 457.925C1337.89 457.925 1349.47 455.986 1359.28 452.107C1369.22 448.228 1376.92 442.834 1382.38 435.925C1387.83 429.016 1390.56 421.077 1390.56 412.107C1390.56 403.743 1388.07 396.713 1383.1 391.016C1378.25 385.319 1371.1 380.471 1361.65 376.471C1352.32 372.471 1340.86 368.834 1327.28 365.561L1286.74 355.38C1255.35 347.743 1230.56 335.804 1212.38 319.561C1194.19 303.319 1185.16 281.44 1185.28 253.925C1185.16 231.38 1191.16 211.683 1203.28 194.834C1215.53 177.986 1232.32 164.834 1253.65 155.38C1274.98 145.925 1299.22 141.198 1326.38 141.198C1354.01 141.198 1378.13 145.925 1398.74 155.38C1419.47 164.834 1435.59 177.986 1447.1 194.834C1458.62 211.683 1464.56 231.198 1464.92 253.38H1389.47ZM1695.82 623.38V473.925H1693.45C1689.82 481.683 1684.67 489.38 1678 497.016C1671.45 504.531 1662.91 510.774 1652.36 515.743C1641.94 520.713 1629.21 523.198 1614.18 523.198C1592.97 523.198 1573.76 517.743 1556.54 506.834C1539.45 495.804 1525.88 479.622 1515.82 458.289C1505.88 436.834 1500.91 410.531 1500.91 379.38C1500.91 347.38 1506.06 320.774 1516.36 299.561C1526.67 278.228 1540.36 262.289 1557.45 251.743C1574.67 241.077 1593.51 235.743 1614 235.743C1629.64 235.743 1642.67 238.41 1653.09 243.743C1663.64 248.955 1672.12 255.501 1678.54 263.38C1685.09 271.137 1690.06 278.774 1693.45 286.289H1696.73V239.38H1773.09V623.38H1695.82ZM1638.73 461.561C1651.21 461.561 1661.76 458.167 1670.36 451.38C1679.09 444.471 1685.76 434.834 1690.36 422.471C1695.09 410.107 1697.45 395.622 1697.45 379.016C1697.45 362.41 1695.15 347.986 1690.54 335.743C1685.94 323.501 1679.27 314.046 1670.54 307.38C1661.82 300.713 1651.21 297.38 1638.73 297.38C1626 297.38 1615.27 300.834 1606.54 307.743C1597.82 314.652 1591.21 324.228 1586.73 336.471C1582.24 348.713 1580 362.895 1580 379.016C1580 395.258 1582.24 409.622 1586.73 422.107C1591.33 434.471 1597.94 444.167 1606.54 451.198C1615.27 458.107 1626 461.561 1638.73 461.561ZM2004.12 399.743V239.38H2081.58V518.652H2007.21V467.925H2004.3C1998 484.289 1987.52 497.44 1972.85 507.38C1958.3 517.319 1940.55 522.289 1919.58 522.289C1900.91 522.289 1884.49 518.046 1870.3 509.561C1856.12 501.077 1845.03 489.016 1837.03 473.38C1829.15 457.743 1825.15 439.016 1825.03 417.198V239.38H1902.49V403.38C1902.61 419.864 1907.03 432.895 1915.76 442.471C1924.49 452.046 1936.18 456.834 1950.85 456.834C1960.18 456.834 1968.91 454.713 1977.03 450.471C1985.15 446.107 1991.7 439.683 1996.67 431.198C2001.76 422.713 2004.24 412.228 2004.12 399.743ZM2212.93 523.925C2195.11 523.925 2179.23 520.834 2165.29 514.652C2151.35 508.349 2140.32 499.077 2132.2 486.834C2124.2 474.471 2120.2 459.077 2120.2 440.652C2120.2 425.137 2123.05 412.107 2128.75 401.561C2134.44 391.016 2142.2 382.531 2152.02 376.107C2161.84 369.683 2172.99 364.834 2185.47 361.561C2198.08 358.289 2211.29 355.986 2225.11 354.652C2241.35 352.955 2254.44 351.38 2264.38 349.925C2274.32 348.349 2281.53 346.046 2286.02 343.016C2290.5 339.986 2292.75 335.501 2292.75 329.561V328.471C2292.75 316.955 2289.11 308.046 2281.84 301.743C2274.69 295.44 2264.5 292.289 2251.29 292.289C2237.35 292.289 2226.26 295.38 2218.02 301.561C2209.78 307.622 2204.32 315.258 2201.66 324.471L2130.02 318.652C2133.66 301.683 2140.81 287.016 2151.47 274.652C2162.14 262.167 2175.9 252.592 2192.75 245.925C2209.72 239.137 2229.35 235.743 2251.66 235.743C2267.17 235.743 2282.02 237.561 2296.2 241.198C2310.5 244.834 2323.17 250.471 2334.2 258.107C2345.35 265.743 2354.14 275.561 2360.56 287.561C2366.99 299.44 2370.2 313.683 2370.2 330.289V518.652H2296.75V479.925H2294.56C2290.08 488.652 2284.08 496.349 2276.56 503.016C2269.05 509.561 2260.02 514.713 2249.47 518.471C2238.93 522.107 2226.75 523.925 2212.93 523.925ZM2235.11 470.471C2246.5 470.471 2256.56 468.228 2265.29 463.743C2274.02 459.137 2280.87 452.955 2285.84 445.198C2290.81 437.44 2293.29 428.652 2293.29 418.834V389.198C2290.87 390.774 2287.53 392.228 2283.29 393.561C2279.17 394.774 2274.5 395.925 2269.29 397.016C2264.08 397.986 2258.87 398.895 2253.66 399.743C2248.44 400.471 2243.72 401.137 2239.47 401.743C2230.38 403.077 2222.44 405.198 2215.66 408.107C2208.87 411.016 2203.6 414.955 2199.84 419.925C2196.08 424.774 2194.2 430.834 2194.2 438.107C2194.2 448.652 2198.02 456.713 2205.66 462.289C2213.41 467.743 2223.23 470.471 2235.11 470.471ZM2475.14 518.652L2399.14 239.38H2477.51L2520.78 427.016H2523.32L2568.42 239.38H2645.32L2691.14 425.925H2693.51L2736.05 239.38H2814.23L2738.42 518.652H2656.42L2608.42 343.016H2604.96L2556.96 518.652H2475.14ZM2915.49 438.289L2915.68 345.38H2926.95L3016.4 239.38H3105.31L2985.13 379.743H2966.77L2915.49 438.289ZM2845.31 518.652V146.289H2922.77V518.652H2845.31ZM3019.86 518.652L2937.68 397.016L2989.31 342.289L3110.58 518.652H3019.86Z" fill="black"/>
</svg>
